<mxfile host="app.diagrams.net" agent="Mozilla/5.0 (Windows NT 10.0; Win64; x64) AppleWebKit/537.36 (KHTML, like Gecko) Chrome/138.0.0.0 Safari/537.36" version="28.0.6">
  <diagram name="Página-1" id="lnFgAOQt2fndRmBkhgnA">
    <mxGraphModel dx="872" dy="431" grid="1" gridSize="10" guides="1" tooltips="1" connect="1" arrows="1" fold="1" page="1" pageScale="1" pageWidth="850" pageHeight="1100" math="0" shadow="0">
      <root>
        <mxCell id="0" />
        <mxCell id="1" parent="0" />
        <mxCell id="-U2fj9Qoz3pa_EdK4km6-8" style="edgeStyle=orthogonalEdgeStyle;rounded=0;orthogonalLoop=1;jettySize=auto;html=1;exitX=0.5;exitY=1;exitDx=0;exitDy=0;entryX=0.5;entryY=0;entryDx=0;entryDy=0;" edge="1" parent="1" source="-U2fj9Qoz3pa_EdK4km6-1" target="-U2fj9Qoz3pa_EdK4km6-2">
          <mxGeometry relative="1" as="geometry" />
        </mxCell>
        <mxCell id="-U2fj9Qoz3pa_EdK4km6-1" value="INGRESAR COMENTARIO" style="ellipse;whiteSpace=wrap;html=1;" vertex="1" parent="1">
          <mxGeometry x="365" y="20" width="120" height="80" as="geometry" />
        </mxCell>
        <mxCell id="-U2fj9Qoz3pa_EdK4km6-22" style="edgeStyle=orthogonalEdgeStyle;rounded=0;orthogonalLoop=1;jettySize=auto;html=1;exitX=0.5;exitY=1;exitDx=0;exitDy=0;entryX=0.5;entryY=0;entryDx=0;entryDy=0;" edge="1" parent="1" source="-U2fj9Qoz3pa_EdK4km6-2" target="-U2fj9Qoz3pa_EdK4km6-21">
          <mxGeometry relative="1" as="geometry" />
        </mxCell>
        <mxCell id="-U2fj9Qoz3pa_EdK4km6-2" value="CLASIFICAR COMENTARIO CON LLM" style="rounded=1;whiteSpace=wrap;html=1;" vertex="1" parent="1">
          <mxGeometry x="365" y="130" width="120" height="60" as="geometry" />
        </mxCell>
        <mxCell id="-U2fj9Qoz3pa_EdK4km6-7" style="edgeStyle=orthogonalEdgeStyle;rounded=0;orthogonalLoop=1;jettySize=auto;html=1;exitX=0;exitY=0.5;exitDx=0;exitDy=0;" edge="1" parent="1" source="-U2fj9Qoz3pa_EdK4km6-5">
          <mxGeometry relative="1" as="geometry">
            <mxPoint x="200" y="420" as="targetPoint" />
          </mxGeometry>
        </mxCell>
        <mxCell id="-U2fj9Qoz3pa_EdK4km6-10" value="V" style="edgeLabel;html=1;align=center;verticalAlign=middle;resizable=0;points=[];" vertex="1" connectable="0" parent="-U2fj9Qoz3pa_EdK4km6-7">
          <mxGeometry x="-0.4139" y="1" relative="1" as="geometry">
            <mxPoint as="offset" />
          </mxGeometry>
        </mxCell>
        <mxCell id="-U2fj9Qoz3pa_EdK4km6-14" style="edgeStyle=orthogonalEdgeStyle;rounded=0;orthogonalLoop=1;jettySize=auto;html=1;exitX=1;exitY=0.5;exitDx=0;exitDy=0;" edge="1" parent="1" source="-U2fj9Qoz3pa_EdK4km6-5">
          <mxGeometry relative="1" as="geometry">
            <mxPoint x="640" y="430" as="targetPoint" />
          </mxGeometry>
        </mxCell>
        <mxCell id="-U2fj9Qoz3pa_EdK4km6-15" value="F" style="edgeLabel;html=1;align=center;verticalAlign=middle;resizable=0;points=[];" vertex="1" connectable="0" parent="-U2fj9Qoz3pa_EdK4km6-14">
          <mxGeometry x="-0.5393" relative="1" as="geometry">
            <mxPoint as="offset" />
          </mxGeometry>
        </mxCell>
        <mxCell id="-U2fj9Qoz3pa_EdK4km6-5" value="¿CATEGORIA ESTA EN CHROMA_POST?&amp;nbsp;" style="rhombus;whiteSpace=wrap;html=1;" vertex="1" parent="1">
          <mxGeometry x="325" y="310" width="200" height="100" as="geometry" />
        </mxCell>
        <mxCell id="-U2fj9Qoz3pa_EdK4km6-20" style="edgeStyle=orthogonalEdgeStyle;rounded=0;orthogonalLoop=1;jettySize=auto;html=1;exitX=0.5;exitY=1;exitDx=0;exitDy=0;entryX=0.5;entryY=0;entryDx=0;entryDy=0;" edge="1" parent="1" source="-U2fj9Qoz3pa_EdK4km6-13" target="-U2fj9Qoz3pa_EdK4km6-19">
          <mxGeometry relative="1" as="geometry" />
        </mxCell>
        <mxCell id="-U2fj9Qoz3pa_EdK4km6-13" value="ENVIA DATOS DE POST A LLM" style="rounded=1;whiteSpace=wrap;html=1;" vertex="1" parent="1">
          <mxGeometry x="130" y="420" width="120" height="60" as="geometry" />
        </mxCell>
        <mxCell id="-U2fj9Qoz3pa_EdK4km6-18" value="CONSULTA CATEGORIAS GENERALES" style="rounded=1;whiteSpace=wrap;html=1;" vertex="1" parent="1">
          <mxGeometry x="580" y="410" width="120" height="60" as="geometry" />
        </mxCell>
        <mxCell id="-U2fj9Qoz3pa_EdK4km6-19" value="GENERAR COMENTARIO CON LL" style="rounded=1;whiteSpace=wrap;html=1;" vertex="1" parent="1">
          <mxGeometry x="130" y="510" width="120" height="60" as="geometry" />
        </mxCell>
        <mxCell id="-U2fj9Qoz3pa_EdK4km6-23" style="edgeStyle=orthogonalEdgeStyle;rounded=0;orthogonalLoop=1;jettySize=auto;html=1;exitX=0.5;exitY=1;exitDx=0;exitDy=0;entryX=0.5;entryY=0;entryDx=0;entryDy=0;" edge="1" parent="1" source="-U2fj9Qoz3pa_EdK4km6-21" target="-U2fj9Qoz3pa_EdK4km6-5">
          <mxGeometry relative="1" as="geometry" />
        </mxCell>
        <mxCell id="-U2fj9Qoz3pa_EdK4km6-21" value="BUSCAR CATEGORIA EN CHROMADB" style="rounded=1;whiteSpace=wrap;html=1;" vertex="1" parent="1">
          <mxGeometry x="365" y="220" width="120" height="60" as="geometry" />
        </mxCell>
      </root>
    </mxGraphModel>
  </diagram>
</mxfile>
